<svg width="72" height="72" viewBox="0 0 72 72" fill="none" xmlns="http://www.w3.org/2000/svg">
<path d="M22.9078 9.6001C14.2318 9.6001 7.19995 16.6319 7.19995 25.3079C7.19995 40.5263 25.0125 55.0841 33.1124 61.4345C33.114 61.4345 33.1156 61.4345 33.1171 61.4345C33.9481 62.0602 34.9598 62.3991 35.9999 62.4001C37.0385 62.3981 38.0484 62.0592 38.8781 61.4345H38.8874C38.9426 61.3912 39.0189 61.3285 39.0749 61.2845C39.0804 61.2802 39.0882 61.2747 39.0937 61.2704C39.0953 61.2688 39.0968 61.2673 39.0984 61.2657C47.2824 54.8396 64.7999 40.4097 64.7999 25.3079C64.7999 16.6319 57.7681 9.6001 49.0921 9.6001C40.8001 9.6001 35.9999 16.8001 35.9999 16.8001C35.9999 16.8001 31.1998 9.6001 22.9078 9.6001ZM44.7421 21.6142C45.1861 21.5254 45.5999 21.8637 45.5999 22.3173V28.247C45.5999 28.6022 45.3479 28.9086 44.9999 28.9782L38.3999 30.9563V43.6267C38.3999 47.1907 37.1818 50.4001 32.9578 50.4001C30.2218 50.4001 28.7999 48.811 28.7999 46.411C28.7999 40.1614 35.9999 42.3726 35.9999 39.3798V24.0001L44.7421 21.6142Z" fill="#21283F"/>
</svg>
