<svg width="18" height="18" viewBox="0 0 18 18" fill="none" xmlns="http://www.w3.org/2000/svg">
<path d="M4.19999 2.39999C3.7226 2.39999 3.26477 2.58964 2.9272 2.9272C2.58964 3.26477 2.39999 3.7226 2.39999 4.19999C2.39999 4.67738 2.58964 5.13522 2.9272 5.47279C3.26477 5.81035 3.7226 5.99999 4.19999 5.99999C4.67738 5.99999 5.13522 5.81035 5.47279 5.47279C5.81035 5.13522 5.99999 4.67738 5.99999 4.19999C5.99999 3.7226 5.81035 3.26477 5.47279 2.9272C5.13522 2.58964 4.67738 2.39999 4.19999 2.39999ZM8.99999 2.39999C8.5226 2.39999 8.06477 2.58964 7.7272 2.9272C7.38964 3.26477 7.19999 3.7226 7.19999 4.19999C7.19999 4.67738 7.38964 5.13522 7.7272 5.47279C8.06477 5.81035 8.5226 5.99999 8.99999 5.99999C9.47738 5.99999 9.93522 5.81035 10.2728 5.47279C10.6104 5.13522 10.8 4.67738 10.8 4.19999C10.8 3.7226 10.6104 3.26477 10.2728 2.9272C9.93522 2.58964 9.47738 2.39999 8.99999 2.39999ZM13.8 2.39999C13.3226 2.39999 12.8648 2.58964 12.5272 2.9272C12.1896 3.26477 12 3.7226 12 4.19999C12 4.67738 12.1896 5.13522 12.5272 5.47279C12.8648 5.81035 13.3226 5.99999 13.8 5.99999C14.2774 5.99999 14.7352 5.81035 15.0728 5.47279C15.4104 5.13522 15.6 4.67738 15.6 4.19999C15.6 3.7226 15.4104 3.26477 15.0728 2.9272C14.7352 2.58964 14.2774 2.39999 13.8 2.39999ZM4.19999 7.19999C3.7226 7.19999 3.26477 7.38964 2.9272 7.7272C2.58964 8.06477 2.39999 8.5226 2.39999 8.99999C2.39999 9.47738 2.58964 9.93522 2.9272 10.2728C3.26477 10.6104 3.7226 10.8 4.19999 10.8C4.67738 10.8 5.13522 10.6104 5.47279 10.2728C5.81035 9.93522 5.99999 9.47738 5.99999 8.99999C5.99999 8.5226 5.81035 8.06477 5.47279 7.7272C5.13522 7.38964 4.67738 7.19999 4.19999 7.19999ZM8.99999 7.19999C8.5226 7.19999 8.06477 7.38964 7.7272 7.7272C7.38964 8.06477 7.19999 8.5226 7.19999 8.99999C7.19999 9.47738 7.38964 9.93522 7.7272 10.2728C8.06477 10.6104 8.5226 10.8 8.99999 10.8C9.47738 10.8 9.93522 10.6104 10.2728 10.2728C10.6104 9.93522 10.8 9.47738 10.8 8.99999C10.8 8.5226 10.6104 8.06477 10.2728 7.7272C9.93522 7.38964 9.47738 7.19999 8.99999 7.19999ZM13.8 7.19999C13.3226 7.19999 12.8648 7.38964 12.5272 7.7272C12.1896 8.06477 12 8.5226 12 8.99999C12 9.47738 12.1896 9.93522 12.5272 10.2728C12.8648 10.6104 13.3226 10.8 13.8 10.8C14.2774 10.8 14.7352 10.6104 15.0728 10.2728C15.4104 9.93522 15.6 9.47738 15.6 8.99999C15.6 8.5226 15.4104 8.06477 15.0728 7.7272C14.7352 7.38964 14.2774 7.19999 13.8 7.19999ZM4.19999 12C3.7226 12 3.26477 12.1896 2.9272 12.5272C2.58964 12.8648 2.39999 13.3226 2.39999 13.8C2.39999 14.2774 2.58964 14.7352 2.9272 15.0728C3.26477 15.4104 3.7226 15.6 4.19999 15.6C4.67738 15.6 5.13522 15.4104 5.47279 15.0728C5.81035 14.7352 5.99999 14.2774 5.99999 13.8C5.99999 13.3226 5.81035 12.8648 5.47279 12.5272C5.13522 12.1896 4.67738 12 4.19999 12ZM8.99999 12C8.5226 12 8.06477 12.1896 7.7272 12.5272C7.38964 12.8648 7.19999 13.3226 7.19999 13.8C7.19999 14.2774 7.38964 14.7352 7.7272 15.0728C8.06477 15.4104 8.5226 15.6 8.99999 15.6C9.47738 15.6 9.93522 15.4104 10.2728 15.0728C10.6104 14.7352 10.8 14.2774 10.8 13.8C10.8 13.3226 10.6104 12.8648 10.2728 12.5272C9.93522 12.1896 9.47738 12 8.99999 12ZM13.8 12C13.3226 12 12.8648 12.1896 12.5272 12.5272C12.1896 12.8648 12 13.3226 12 13.8C12 14.2774 12.1896 14.7352 12.5272 15.0728C12.8648 15.4104 13.3226 15.6 13.8 15.6C14.2774 15.6 14.7352 15.4104 15.0728 15.0728C15.4104 14.7352 15.6 14.2774 15.6 13.8C15.6 13.3226 15.4104 12.8648 15.0728 12.5272C14.7352 12.1896 14.2774 12 13.8 12Z" fill="white"/>
</svg>
