<svg width="18" height="18" viewBox="0 0 18 18" fill="none" xmlns="http://www.w3.org/2000/svg">
<path d="M7.5 1.79999C7.10217 1.79999 6.72064 1.95802 6.43934 2.23933C6.15803 2.52063 6 2.90216 6 3.29999C6.00072 3.42416 6.01686 3.54776 6.04805 3.66796C5.78986 3.7271 5.4924 3.83571 5.26406 4.06405C4.76726 4.56085 4.80117 5.39882 4.80117 5.39882C4.80117 5.39882 5.63914 5.43273 6.13594 4.93593C6.29925 4.77261 6.393 4.57582 6.46172 4.38046C6.74068 4.64909 7.11272 4.79942 7.5 4.79999C7.89782 4.79999 8.27935 4.64195 8.56066 4.36065C8.84196 4.07934 9 3.69781 9 3.29999C9 2.90216 8.84196 2.52063 8.56066 2.23933C8.27935 1.95802 7.89782 1.79999 7.5 1.79999ZM12 1.79999L10.4004 6.59999H8.95547C8.57913 6.23144 8.06905 5.99999 7.5 5.99999C6.93095 5.99999 6.42087 6.23144 6.04453 6.59999H2.4C2.32049 6.59886 2.24155 6.61355 2.16777 6.6432C2.09399 6.67285 2.02684 6.71686 1.97022 6.77269C1.9136 6.82852 1.86863 6.89504 1.83795 6.9684C1.80726 7.04175 1.79145 7.12047 1.79145 7.19999C1.79145 7.2795 1.80726 7.35822 1.83795 7.43158C1.86863 7.50493 1.9136 7.57146 1.97022 7.62728C2.02684 7.68311 2.09399 7.72713 2.16777 7.75678C2.24155 7.78642 2.32049 7.80111 2.4 7.79999H15.6C15.6795 7.80111 15.7584 7.78642 15.8322 7.75678C15.906 7.72713 15.9732 7.68311 16.0298 7.62728C16.0864 7.57146 16.1314 7.50493 16.1621 7.43158C16.1927 7.35822 16.2085 7.2795 16.2085 7.19999C16.2085 7.12047 16.1927 7.04175 16.1621 6.9684C16.1314 6.89504 16.0864 6.82852 16.0298 6.77269C15.9732 6.71686 15.906 6.67285 15.8322 6.6432C15.7584 6.61355 15.6795 6.59886 15.6 6.59999H15.5684C15.2444 2.88924 12 1.79999 12 1.79999ZM2.4 8.99999L2.99648 10.4918C3.36128 11.4026 4.24262 12 5.22422 12H12.7758C13.7568 12 14.6387 11.4026 15.0035 10.4918L15.6 8.99999H2.4ZM6.3 13.2C5.90217 13.2 5.52064 13.358 5.23934 13.6393C4.95803 13.9206 4.8 14.3022 4.8 14.7C4.8 15.0978 4.95803 15.4793 5.23934 15.7606C5.52064 16.042 5.90217 16.2 6.3 16.2C6.69782 16.2 7.07935 16.042 7.36066 15.7606C7.64196 15.4793 7.8 15.0978 7.8 14.7C7.8 14.3022 7.64196 13.9206 7.36066 13.6393C7.07935 13.358 6.69782 13.2 6.3 13.2ZM11.7 13.2C11.3022 13.2 10.9206 13.358 10.6393 13.6393C10.358 13.9206 10.2 14.3022 10.2 14.7C10.2 15.0978 10.358 15.4793 10.6393 15.7606C10.9206 16.042 11.3022 16.2 11.7 16.2C12.0978 16.2 12.4794 16.042 12.7607 15.7606C13.042 15.4793 13.2 15.0978 13.2 14.7C13.2 14.3022 13.042 13.9206 12.7607 13.6393C12.4794 13.358 12.0978 13.2 11.7 13.2Z" fill="white"/>
</svg>
