<svg width="18" height="18" viewBox="0 0 18 18" fill="none" xmlns="http://www.w3.org/2000/svg">
<path d="M9 1.79999C8.52261 1.79999 8.06477 1.98963 7.7272 2.3272C7.38964 2.66476 7.2 3.1226 7.2 3.59999C7.2 4.07738 7.38964 4.53521 7.7272 4.87278C8.06477 5.21035 8.52261 5.39999 9 5.39999C9.47739 5.39999 9.93522 5.21035 10.2728 4.87278C10.6104 4.53521 10.8 4.07738 10.8 3.59999C10.8 3.1226 10.6104 2.66476 10.2728 2.3272C9.93522 1.98963 9.47739 1.79999 9 1.79999V1.79999ZM7.77422 6.59999C6.88682 6.59999 6.07541 7.08616 5.65781 7.86796L4.38633 10.2457C4.14753 10.6099 4.1378 11.0801 4.3664 11.4551C4.5746 11.7971 4.94326 12.0012 5.33086 12.0012C5.38246 12.0012 5.43452 11.9966 5.48672 11.9894L6.6 11.8465V12.6891L4.70273 14.0332C4.38773 14.257 4.2 14.6206 4.2 15.007C4.2 15.6646 4.73477 16.2 5.39297 16.2H6.71601C6.64821 16.011 6.6 15.8124 6.6 15.6C6.6 14.6058 7.4058 13.8 8.4 13.8C8.7474 13.8 9 13.8984 9 13.8984L10.9863 14.5301L8.4 15C8.32049 14.9989 8.24155 15.0136 8.16777 15.0432C8.09399 15.0728 8.02684 15.1169 7.97022 15.1727C7.91359 15.2285 7.86863 15.295 7.83794 15.3684C7.80726 15.4418 7.79145 15.5205 7.79145 15.6C7.79145 15.6795 7.80726 15.7582 7.83794 15.8316C7.86863 15.9049 7.91359 15.9715 7.97022 16.0273C8.02684 16.0831 8.09399 16.1271 8.16777 16.1568C8.24155 16.1864 8.32049 16.2011 8.4 16.2H12.607C13.0948 16.2 13.4394 15.8568 13.623 15.4312C13.679 15.3756 13.7234 15.3095 13.7537 15.2367C13.7841 15.164 13.7998 15.0859 13.8 15.007C13.8 14.62 13.6113 14.2562 13.2984 14.0332C13.2977 14.0332 13.2969 14.0332 13.2961 14.0332L11.4 12.6891V11.8465L12.5051 11.9883C12.9539 12.0525 13.3972 11.8433 13.6336 11.4551C13.8616 11.0801 13.8525 10.6105 13.6137 10.2457L12.3422 7.86796C11.924 7.08616 11.1126 6.59999 10.2258 6.59999H7.77422ZM9.09609 7.80233C10.0699 7.85333 10.8 8.72694 10.8 9.70194V9.93397C10.8 10.2658 10.5095 10.5209 10.1801 10.4789C9.94968 10.4489 9.7623 10.278 9.7125 10.0512L9.58593 9.47225C9.54993 9.30785 9.44958 9.17419 9.31758 9.09139C9.30858 9.08539 9.29905 9.07979 9.28945 9.07499C9.20245 9.02639 9.10437 8.99999 9.00117 8.99999H8.99883C8.90223 8.99999 8.80918 9.02301 8.72578 9.06561C8.70478 9.07641 8.68404 9.08814 8.66484 9.10194C8.54064 9.18534 8.44769 9.31388 8.41289 9.47108L8.28633 10.0512C8.23653 10.278 8.05032 10.4495 7.81992 10.4789C7.49112 10.5215 7.2 10.2658 7.2 9.93397V9.59999C7.2 8.57399 8.05809 7.74833 9.09609 7.80233Z" fill="white"/>
</svg>
