<svg width="84" height="22" viewBox="0 0 84 22" fill="none" xmlns="http://www.w3.org/2000/svg">
<path d="M24.125 17.1411C24.7974 17.1411 25.1958 16.7344 25.1958 16.0288V12.1108H29.4209C29.9854 12.1108 30.3589 11.7788 30.3589 11.2393C30.3589 10.6997 29.9854 10.3677 29.4209 10.3677H25.1958V6.83154H29.8525C30.4336 6.83154 30.832 6.48291 30.832 5.92676C30.832 5.37061 30.4419 5.02197 29.8525 5.02197H24.125C23.4609 5.02197 23.0542 5.43701 23.0542 6.13428V16.0288C23.0542 16.7344 23.4609 17.1411 24.125 17.1411ZM34.1772 17.1411C35.3145 17.1411 36.4185 16.5518 36.9248 15.5972H36.9663V16.2114C36.9995 16.8257 37.3896 17.166 37.9541 17.166C38.5352 17.166 38.9585 16.7925 38.9585 16.1284V10.9404C38.9585 9.17236 37.5391 8.01855 35.356 8.01855C33.6709 8.01855 32.3096 8.66602 31.8613 9.68701C31.77 9.87793 31.7202 10.0605 31.7202 10.2515C31.7202 10.7495 32.0854 11.0815 32.5918 11.0815C32.9404 11.0815 33.2144 10.9487 33.4302 10.6665C33.9448 9.91113 34.4678 9.63721 35.2729 9.63721C36.2939 9.63721 36.9165 10.1685 36.9165 11.0898V11.7207L34.584 11.8535C32.4424 11.9863 31.2388 12.9243 31.2388 14.4849C31.2388 16.0703 32.4756 17.1411 34.1772 17.1411ZM34.8081 15.5806C33.9116 15.5806 33.3057 15.124 33.3057 14.4019C33.3057 13.7046 33.8784 13.2563 34.8745 13.1899L36.9165 13.0654V13.7378C36.9165 14.8003 35.9702 15.5806 34.8081 15.5806ZM41.1997 14.8252C41.1997 16.3276 41.98 17.0913 43.5156 17.0913H43.5986C44.5449 17.0913 45.0762 16.7676 45.0762 16.1616C45.0762 15.6802 44.7939 15.4478 44.2461 15.3979L44.0967 15.3813C43.499 15.3315 43.2666 15.041 43.2666 14.377V9.79492H44.2212C44.7358 9.79492 45.0513 9.48779 45.0513 8.98975C45.0513 8.5 44.7358 8.20117 44.2212 8.20117H43.2666V7.03076C43.2666 6.3667 42.8682 5.95166 42.2373 5.95166C41.5981 5.95166 41.1997 6.3667 41.1997 7.03076V8.20117H40.6436C40.1289 8.20117 39.8135 8.5 39.8135 8.98975C39.8135 9.48779 40.1289 9.79492 40.6436 9.79492H41.1997V14.8252ZM47.3672 17.166C47.9731 17.166 48.4048 16.7759 48.4048 16.0786V11.9033C48.4048 10.6416 49.1602 9.78662 50.3472 9.78662C51.5259 9.78662 52.1069 10.4839 52.1069 11.729V16.0786C52.1069 16.7759 52.5386 17.166 53.1445 17.166C53.7505 17.166 54.1738 16.7759 54.1738 16.0786V11.314C54.1738 9.28027 53.0698 8.03516 51.1274 8.03516C49.7744 8.03516 48.8613 8.64111 48.3882 9.68701H48.3467V9.07275C48.3467 8.43359 47.9316 8.02686 47.3257 8.02686C46.7114 8.02686 46.3379 8.43359 46.3379 9.07275V16.0786C46.3379 16.7759 46.7612 17.166 47.3672 17.166ZM59.7437 17.1743C61.4204 17.1743 62.7319 16.5186 63.313 15.3979C63.4043 15.2153 63.4541 15.0327 63.4541 14.875C63.4541 14.377 63.0889 14.0781 62.624 14.0781C62.3335 14.0781 62.1426 14.1694 61.9268 14.4102C61.2627 15.2568 60.6567 15.5806 59.7271 15.5806C58.3823 15.5806 57.5273 14.6343 57.5273 13.165V13.0986H62.7153C63.3296 13.0986 63.6782 12.7334 63.6782 12.1191C63.6782 9.72852 62.0347 8.01855 59.6274 8.01855C57.0874 8.01855 55.4688 9.82812 55.4688 12.6338C55.4688 15.4893 57.0542 17.1743 59.7437 17.1743ZM57.5439 11.7373C57.627 10.4756 58.4736 9.62061 59.6357 9.62061C60.7979 9.62061 61.6113 10.459 61.6528 11.7373H57.5439ZM66.1104 17.166C66.7163 17.166 67.1396 16.7759 67.1396 16.0786V13.9785L67.9199 13.248L70.5596 16.5933C70.8584 17.0249 71.0991 17.166 71.5059 17.166C72.0786 17.166 72.4854 16.7842 72.4854 16.2446C72.4854 15.979 72.4189 15.7964 72.2031 15.4976L69.4473 12.0527L71.9541 9.67871C72.2363 9.41309 72.3276 9.22217 72.3276 8.91504C72.3276 8.41699 71.9375 8.02686 71.4229 8.02686C71.1074 8.02686 70.8833 8.14307 70.6177 8.42529L67.1646 11.8369H67.1396V5.94336C67.1396 5.24609 66.7163 4.85596 66.1104 4.85596C65.5044 4.85596 65.0728 5.24609 65.0728 5.94336V16.0786C65.0728 16.7759 65.5044 17.166 66.1104 17.166ZM77.3081 17.1743C79.8896 17.1743 81.5664 15.4561 81.5664 12.6006C81.5664 9.75342 79.873 8.01855 77.3081 8.01855C74.7432 8.01855 73.0498 9.76172 73.0498 12.6006C73.0498 15.4561 74.7266 17.1743 77.3081 17.1743ZM77.3081 15.5391C75.9966 15.5391 75.1499 14.4766 75.1499 12.6006C75.1499 10.7329 76.0049 9.66211 77.3081 9.66211C78.6196 9.66211 79.4663 10.7329 79.4663 12.6006C79.4663 14.4766 78.6196 15.5391 77.3081 15.5391Z" fill="#EBEBF5" fill-opacity="0.6"/>
<path d="M8.53359 2.21004C8.28742 2.23889 8.06667 2.44087 8.06667 2.73283V6.60001L8.07096 6.59572C8.07007 7.16 8.22547 7.71685 8.52507 8.22289C8.82468 8.72894 9.2604 9.17053 9.79831 9.51329C8.17324 10.7556 5.44237 11.5738 5.15768 16.0775C5.13055 16.5021 5.46568 16.8667 5.89102 16.8667H7.33333C7.73887 16.8667 8.06667 17.1945 8.06667 17.6C8.06667 18.0055 7.73887 18.3333 7.33333 18.3333H1.46667C1.36949 18.332 1.27301 18.3499 1.18284 18.3862C1.09266 18.4224 1.01058 18.4762 0.941379 18.5444C0.872174 18.6127 0.817221 18.694 0.779713 18.7836C0.742204 18.8733 0.722889 18.9695 0.722889 19.0667C0.722889 19.1639 0.742204 19.2601 0.779713 19.3497C0.817221 19.4394 0.872174 19.5207 0.941379 19.5889C1.01058 19.6572 1.09266 19.711 1.18284 19.7472C1.27301 19.7834 1.36949 19.8014 1.46667 19.8H8.06667H13.9333C14.2309 19.7996 14.5213 19.7087 14.7659 19.5393C15.0106 19.37 15.198 19.1303 15.3032 18.8519C15.4084 18.5736 15.4265 18.2699 15.355 17.981C15.2835 17.6922 15.1259 17.4319 14.903 17.2348C15.1182 16.1831 15.4 14.5833 15.4 13.2C15.4 12.1847 15.0862 10.8651 14.7497 9.72957C15.3951 9.40229 15.9285 8.94205 16.2985 8.39317C16.6685 7.8443 16.8627 7.22527 16.8624 6.59572L16.8667 6.60001V2.73283C16.8667 2.26569 16.3022 2.03113 15.9715 2.36186L14.8257 3.50769C14.1207 3.13342 13.3025 2.93419 12.4667 2.93335C11.6312 2.93485 10.8134 3.13456 10.1091 3.50913L8.96185 2.36186C8.83782 2.23784 8.6813 2.19273 8.53359 2.21004Z" fill="#EBEBF5" fill-opacity="0.6"/>
</svg>
