<svg width="24" height="24" viewBox="0 0 24 24" fill="none" xmlns="http://www.w3.org/2000/svg">
<path d="M12 0.799988C5.80684 0.799988 0.799988 5.80684 0.799988 12C0.799988 18.1931 5.80684 23.2 12 23.2C18.1931 23.2 23.2 18.1931 23.2 12C23.2 5.80684 18.1931 0.799988 12 0.799988ZM12 2.66665C17.1935 2.66665 21.3333 6.80647 21.3333 12C21.3333 17.1935 17.1935 21.3333 12 21.3333C6.80647 21.3333 2.66665 17.1935 2.66665 12C2.66665 6.80647 6.80647 2.66665 12 2.66665ZM6.39999 11.0667C6.27631 11.0649 6.15352 11.0878 6.03875 11.1339C5.92398 11.18 5.81952 11.2485 5.73144 11.3353C5.64336 11.4221 5.57342 11.5256 5.52568 11.6397C5.47795 11.7538 5.45336 11.8763 5.45336 12C5.45336 12.1237 5.47795 12.2461 5.52568 12.3602C5.57342 12.4743 5.64336 12.5778 5.73144 12.6647C5.81952 12.7515 5.92398 12.82 6.03875 12.8661C6.15352 12.9122 6.27631 12.9351 6.39999 12.9333H9.19999C9.32367 12.9351 9.44646 12.9122 9.56123 12.8661C9.676 12.82 9.78046 12.7515 9.86854 12.6647C9.95661 12.5778 10.0266 12.4743 10.0743 12.3602C10.122 12.2461 10.1466 12.1237 10.1466 12C10.1466 11.8763 10.122 11.7538 10.0743 11.6397C10.0266 11.5256 9.95661 11.4221 9.86854 11.3353C9.78046 11.2485 9.676 11.18 9.56123 11.1339C9.44646 11.0878 9.32367 11.0649 9.19999 11.0667H6.39999ZM14.8 11.0667C14.6763 11.0649 14.5535 11.0878 14.4387 11.1339C14.324 11.18 14.2195 11.2485 14.1314 11.3353C14.0434 11.4221 13.9734 11.5256 13.9257 11.6397C13.8779 11.7538 13.8534 11.8763 13.8534 12C13.8534 12.1237 13.8779 12.2461 13.9257 12.3602C13.9734 12.4743 14.0434 12.5778 14.1314 12.6647C14.2195 12.7515 14.324 12.82 14.4387 12.8661C14.5535 12.9122 14.6763 12.9351 14.8 12.9333H17.6C17.7237 12.9351 17.8465 12.9122 17.9612 12.8661C18.076 12.82 18.1805 12.7515 18.2685 12.6647C18.3566 12.5778 18.4266 12.4743 18.4743 12.3602C18.522 12.2461 18.5466 12.1237 18.5466 12C18.5466 11.8763 18.522 11.7538 18.4743 11.6397C18.4266 11.5256 18.3566 11.4221 18.2685 11.3353C18.1805 11.2485 18.076 11.18 17.9612 11.1339C17.8465 11.0878 17.7237 11.0649 17.6 11.0667H14.8ZM13.4 15.7333C12.6533 15.7333 12 16.3867 12 17.1333C12 17.88 12.6533 18.5333 13.4 18.5333C14.1467 18.5333 14.8 17.88 14.8 17.1333C14.8 16.3867 14.1467 15.7333 13.4 15.7333Z" fill="white"/>
</svg>
