<svg width="24" height="24" viewBox="0 0 24 24" fill="none" xmlns="http://www.w3.org/2000/svg">
<path d="M22.1471 7.00866L15.3524 1.78199C15.1559 1.63082 14.8904 1.54639 14.6133 1.54639H3.63734C2.48225 1.54639 1.54668 2.26606 1.54668 3.15459V20.8448C1.54668 21.7334 2.48225 22.4531 3.63734 22.4531H20.3627C21.5178 22.4531 22.4533 21.7334 22.4533 20.8448V7.57716C22.4533 7.36407 22.3436 7.15983 22.1471 7.00866ZM15.136 16.8243H6.77334C6.19632 16.8243 5.72801 16.4649 5.72801 16.0202C5.72801 15.5756 6.19632 15.2161 6.77334 15.2161H15.136C15.7141 15.2161 16.1813 15.5756 16.1813 16.0202C16.1813 16.4649 15.7141 16.8243 15.136 16.8243ZM17.2267 13.6079H6.77334C6.19632 13.6079 5.72801 13.2485 5.72801 12.8038C5.72801 12.36 6.19632 11.9997 6.77334 11.9997H17.2267C17.8047 11.9997 18.272 12.36 18.272 12.8038C18.272 13.2485 17.8047 13.6079 17.2267 13.6079ZM15.136 7.97921C14.559 7.97921 14.0907 7.61897 14.0907 7.1751V3.0774L20.463 7.97921H15.136Z" fill="white"/>
</svg>
