<svg width="24" height="24" viewBox="0 0 24 24" fill="none" xmlns="http://www.w3.org/2000/svg">
<path d="M11.4988 1.56504C11.2581 1.56851 11.0286 1.65971 10.8609 1.81864C10.6931 1.97756 10.6008 2.19123 10.6041 2.41274V4.24208C9.55206 4.5911 8.78609 5.51265 8.78609 6.59408C8.78609 7.00922 8.90971 7.39582 9.10743 7.74231L5.41823 14.9567H2.42319C1.92143 14.9567 1.51421 15.3314 1.51421 15.793C1.51421 16.2546 1.92143 16.6293 2.42319 16.6293H4.5625L2.42319 20.8106V21.6469L3.33218 22.4831L4.24116 21.6469V20.9984L11.0586 9.06041C11.2071 9.08388 11.3577 9.10288 11.513 9.10288C11.6678 9.10288 11.8177 9.0837 11.9658 9.06041L15.3336 14.9567H12.422V14.1205C12.4237 14.0086 12.4009 13.8975 12.3551 13.7939C12.3093 13.6902 12.2413 13.5961 12.1552 13.5171C12.0692 13.438 11.9667 13.3757 11.854 13.3337C11.7412 13.2917 11.6205 13.271 11.4988 13.2728C11.2581 13.2762 11.0286 13.3674 10.8609 13.5264C10.6931 13.6853 10.6008 13.899 10.6041 14.1205V14.9567H9.51044L8.55352 16.6293H10.6041V17.4655C10.6024 17.5764 10.6246 17.6864 10.6695 17.7892C10.7144 17.892 10.7811 17.9856 10.8657 18.0646C10.9503 18.1435 11.0511 18.2061 11.1622 18.2489C11.2733 18.2917 11.3926 18.3137 11.513 18.3137C11.6335 18.3137 11.7528 18.2917 11.8639 18.2489C11.975 18.2061 12.0758 18.1435 12.1604 18.0646C12.245 17.9856 12.3116 17.892 12.3566 17.7892C12.4015 17.6864 12.4237 17.5764 12.422 17.4655V16.6293H16.2888L18.7849 20.9984V21.6469L19.6939 22.4831L20.6029 21.6469V20.8106L13.9187 7.74231C14.1164 7.39582 14.24 7.00922 14.24 6.59408C14.24 5.51265 13.474 4.5911 12.422 4.24208V2.41274C12.4237 2.30086 12.4009 2.18981 12.3551 2.08616C12.3093 1.98251 12.2413 1.88838 12.1552 1.80933C12.0692 1.73029 11.9667 1.66794 11.854 1.62598C11.7412 1.58402 11.6205 1.5633 11.4988 1.56504V1.56504ZM11.4616 5.76761C11.4964 5.76946 11.5314 5.76946 11.5663 5.76761C12.0513 5.79336 12.422 6.13985 12.422 6.59408C12.422 7.06584 12.0258 7.43034 11.513 7.43034C11.0003 7.43034 10.6041 7.06584 10.6041 6.59408C10.6041 6.13929 10.9757 5.79258 11.4616 5.76761ZM19.4258 14.9567L20.2816 16.6293H21.5119C22.0136 16.6293 22.4209 16.2546 22.4209 15.793C22.4209 15.3314 22.0136 14.9567 21.5119 14.9567H19.4258Z" fill="white"/>
</svg>
