<svg width="72" height="72" viewBox="0 0 72 72" fill="none" xmlns="http://www.w3.org/2000/svg">
<path d="M20.4 12C14.387 12 9.29371 16.0769 7.71562 21.6H4.8C4.48197 21.5955 4.16622 21.6543 3.87109 21.7728C3.57597 21.8914 3.30736 22.0675 3.08087 22.2908C2.85438 22.5141 2.67454 22.7802 2.55178 23.0736C2.42903 23.367 2.36581 23.6819 2.36581 24C2.36581 24.3181 2.42903 24.6329 2.55178 24.9264C2.67454 25.2198 2.85438 25.4859 3.08087 25.7092C3.30736 25.9325 3.57597 26.1086 3.87109 26.2271C4.16622 26.3457 4.48197 26.4045 4.8 26.4H7.26093C7.87254 33.1041 13.5431 38.4 20.4 38.4C27.6617 38.4 33.6 32.4617 33.6 25.2C33.6 24.9486 33.5765 24.7027 33.5625 24.4547C33.5894 24.3047 33.602 24.1524 33.6 24C33.6 22.6439 34.6439 21.6 36 21.6C37.3561 21.6 38.4 22.6439 38.4 24C38.398 24.1524 38.4106 24.3047 38.4375 24.4547C38.4235 24.7027 38.4 24.9486 38.4 25.2C38.4 32.4617 44.3383 38.4 51.6 38.4C58.4569 38.4 64.1275 33.1041 64.7391 26.4H67.2C67.518 26.4045 67.8338 26.3457 68.1289 26.2271C68.424 26.1086 68.6926 25.9325 68.9191 25.7092C69.1456 25.4859 69.3255 25.2198 69.4482 24.9264C69.571 24.6329 69.6342 24.3181 69.6342 24C69.6342 23.6819 69.571 23.367 69.4482 23.0736C69.3255 22.7802 69.1456 22.5141 68.9191 22.2908C68.6926 22.0675 68.424 21.8914 68.1289 21.7728C67.8338 21.6543 67.518 21.5955 67.2 21.6H64.2844C62.7063 16.0769 57.613 12 51.6 12C46.8554 12 42.6869 14.5405 40.3594 18.3234C39.1425 17.3837 37.6406 16.8 36 16.8C34.3594 16.8 32.8575 17.3837 31.6406 18.3234C29.3131 14.5405 25.1446 12 20.4 12ZM20.4 16.8C25.0676 16.8 28.8 20.5324 28.8 25.2C28.8 29.8676 25.0676 33.6 20.4 33.6C15.7324 33.6 12 29.8676 12 25.2C12 20.5324 15.7324 16.8 20.4 16.8ZM51.6 16.8C56.2676 16.8 60 20.5324 60 25.2C60 29.8676 56.2676 33.6 51.6 33.6C46.9324 33.6 43.2 29.8676 43.2 25.2C43.2 20.5324 46.9324 16.8 51.6 16.8ZM31.2 43.2C23.9328 43.2 24.1392 52.8 16.8 52.8C8.6592 52.8 9.6 45.6 9.6 45.6C9.6 45.6 7.2 48.2304 7.2 51.6C7.2 57.3624 13.2748 60 21.5812 60C28.7111 60 33.4215 58.4656 36 55.9969C38.5785 58.4656 43.2889 60 50.4187 60C58.7251 60 64.8 57.3624 64.8 51.6C64.8 48.2304 62.4 45.6 62.4 45.6C62.4 45.6 63.3408 52.8 55.2 52.8C47.8608 52.8 48.0672 43.2 40.8 43.2C38.837 43.2 37.2176 43.8611 36 44.9203C34.7823 43.8611 33.163 43.2 31.2 43.2Z" fill="currentColor"/>
</svg>
