<svg width="24" height="24" viewBox="0 0 24 24" fill="none" xmlns="http://www.w3.org/2000/svg">
<path d="M12 1.64404C11.604 1.64404 11.2241 1.83558 10.9441 2.17651C10.664 2.51745 10.5067 2.97986 10.5067 3.46201C10.5068 3.79133 10.5804 4.11442 10.7196 4.39678C10.8588 4.67914 11.0584 4.91016 11.2971 5.06517L8.34397 11.8062L4.32626 8.92835C4.46152 8.64918 4.53302 8.33106 4.53334 8.00694C4.53334 7.52478 4.37601 7.06238 4.09596 6.72144C3.8159 6.38051 3.43607 6.18897 3.04001 6.18897C2.64395 6.18897 2.26412 6.38051 1.98406 6.72144C1.70401 7.06238 1.54668 7.52478 1.54668 8.00694C1.54668 8.4891 1.70401 8.9515 1.98406 9.29244C2.26412 9.63338 2.64395 9.82491 3.04001 9.82491C3.08971 9.82438 3.13935 9.82082 3.18876 9.81426L3.78668 17.0968H6.02668H15.7333H17.9733H20.2133L20.8113 9.81603C20.8607 9.822 20.9103 9.82497 20.96 9.82491C21.3561 9.82491 21.7359 9.63338 22.016 9.29244C22.296 8.9515 22.4533 8.4891 22.4533 8.00694C22.4533 7.52478 22.296 7.06238 22.016 6.72144C21.7359 6.38051 21.3561 6.18897 20.96 6.18897C20.564 6.18897 20.1841 6.38051 19.9041 6.72144C19.624 7.06238 19.4667 7.52478 19.4667 8.00694C19.467 8.33106 19.5385 8.64918 19.6738 8.92835L15.6561 11.8062L12.7029 5.06517C12.9416 4.91016 13.1412 4.67914 13.2804 4.39678C13.4196 4.11442 13.4932 3.79133 13.4933 3.46201C13.4933 2.97986 13.336 2.51745 13.056 2.17651C12.7759 1.83558 12.3961 1.64404 12 1.64404ZM3.78668 18.9148V20.7327C3.78668 21.7372 4.45494 22.5507 5.28001 22.5507H18.72C19.5451 22.5507 20.2133 21.7372 20.2133 20.7327V18.9148H3.78668Z" fill="currentColor"/>
</svg>
