<svg width="24" height="24" viewBox="0 0 24 24" fill="none" xmlns="http://www.w3.org/2000/svg">
<path d="M6.77334 1.47168C3.88648 1.47168 1.54668 4.27944 1.54668 7.74368V20.2877C1.54668 21.4428 2.32632 22.3783 3.2889 22.3783H6.77334H12H20.7111C21.6633 22.3783 22.4533 21.4303 22.4533 20.2877V7.74368C22.4533 4.29238 20.1028 1.47168 17.2267 1.47168H6.77334ZM10.661 3.56235H17.2267C19.1609 3.56235 20.7111 5.42265 20.7111 7.74368V20.2877H12V7.74368C12 6.13462 11.4909 4.67258 10.661 3.56235ZM15.4845 5.65301C15.0224 5.65301 14.5792 5.87328 14.2525 6.26536C13.9258 6.65743 13.7422 7.1892 13.7422 7.74368C13.7422 8.29816 13.9258 8.82993 14.2525 9.222C14.5792 9.61408 15.0224 9.83435 15.4845 9.83435V17.1517H17.2267H18.9689V12.9703H17.2267V7.74368C17.2267 7.1892 17.0431 6.65743 16.7164 6.26536C16.3897 5.87328 15.9465 5.65301 15.4845 5.65301ZM5.03112 7.74368H8.51557C8.99642 7.74368 9.38668 8.21199 9.38668 8.78901C9.38668 9.36604 8.99642 9.83435 8.51557 9.83435H5.03112C4.55027 9.83435 4.16001 9.36604 4.16001 8.78901C4.16001 8.21199 4.55027 7.74368 5.03112 7.74368Z" fill="white"/>
</svg>
