<svg width="24" height="24" viewBox="0 0 24 24" fill="none" xmlns="http://www.w3.org/2000/svg">
<path d="M3.44728 1.54639C2.3972 1.54639 1.54668 2.39691 1.54668 3.44699V20.5524C1.54668 21.6025 2.3972 22.4531 3.44728 22.4531H4.92656C4.59966 21.8914 4.39759 21.2481 4.39759 20.5524V3.44699C4.39759 2.75137 4.59966 2.10802 4.92656 1.54639H3.44728ZM8.1988 1.54639C7.14871 1.54639 6.29819 2.39691 6.29819 3.44699V20.5524C6.29819 21.6025 7.14871 22.4531 8.1988 22.4531H20.5527C21.6028 22.4531 22.4533 21.6025 22.4533 20.5524V7.72336C22.4533 7.47153 22.3536 7.23012 22.1749 7.05146L16.9483 1.8248C16.7696 1.64614 16.5282 1.54639 16.2764 1.54639H8.1988ZM15.8012 3.35605L20.6437 8.19851H16.7515C16.227 8.19851 15.8012 7.77277 15.8012 7.2482V3.35605ZM11.0497 11.9997H17.7018C18.2264 11.9997 18.6521 12.4255 18.6521 12.95C18.6521 13.4746 18.2264 13.9003 17.7018 13.9003H11.0497C10.5251 13.9003 10.0994 13.4746 10.0994 12.95C10.0994 12.4255 10.5251 11.9997 11.0497 11.9997ZM11.0497 15.8009H15.8012C16.3258 15.8009 16.7515 16.2267 16.7515 16.7512C16.7515 17.2758 16.3258 17.7015 15.8012 17.7015H11.0497C10.5251 17.7015 10.0994 17.2758 10.0994 16.7512C10.0994 16.2267 10.5251 15.8009 11.0497 15.8009Z" fill="white"/>
</svg>
