<svg width="28" height="28" viewBox="0 0 28 28" fill="none" xmlns="http://www.w3.org/2000/svg">
<g clip-path="url(#clip0_851_31)">
<path d="M17.8085 0.0304188C17.5746 0.034054 17.3493 0.119161 17.1713 0.271076C16.9934 0.422991 16.8741 0.6322 16.8339 0.862657C16.7936 1.09311 16.835 1.33039 16.951 1.53359C17.0669 1.7368 17.25 1.89322 17.4689 1.97589C21.3809 3.50473 24.4954 6.61921 26.0242 10.5313C26.0723 10.6542 26.1441 10.7665 26.2356 10.8617C26.3271 10.957 26.4364 11.0332 26.5574 11.0862C26.6784 11.1391 26.8086 11.1677 26.9406 11.1704C27.0726 11.173 27.2038 11.1496 27.3268 11.1016C27.4498 11.0535 27.5621 10.9816 27.6573 10.8902C27.7525 10.7987 27.8287 10.6893 27.8817 10.5684C27.9347 10.4474 27.9633 10.3172 27.9659 10.1852C27.9685 10.0532 27.9452 9.92198 27.8971 9.79901C26.1633 5.36246 22.6377 1.83687 18.2011 0.103055C18.0764 0.052832 17.9429 0.0281328 17.8085 0.0304188V0.0304188ZM17.0998 4.11179C16.8743 4.12128 16.6585 4.20639 16.4873 4.35341C16.316 4.50044 16.1992 4.70082 16.1557 4.92229C16.1122 5.14376 16.1445 5.37343 16.2474 5.57433C16.3502 5.77523 16.5177 5.93565 16.7229 6.02978C19.0193 7.12135 20.8788 8.98081 21.9704 11.2773C22.0239 11.4013 22.102 11.5132 22.1998 11.6064C22.2976 11.6996 22.4132 11.7722 22.5397 11.8197C22.6662 11.8672 22.8009 11.8887 22.9359 11.883C23.0709 11.8772 23.2034 11.8443 23.3254 11.7862C23.4473 11.7281 23.5564 11.6461 23.6459 11.5449C23.7355 11.4437 23.8037 11.3255 23.8465 11.1974C23.8894 11.0692 23.9059 10.9338 23.8952 10.7991C23.8846 10.6644 23.8468 10.5332 23.7843 10.4135C22.4937 7.69834 20.3018 5.50642 17.5867 4.21584C17.4357 4.14088 17.2682 4.1051 17.0998 4.11179V4.11179ZM10.9846 6.96423L9.6222 9.00786C9.22215 9.60792 9.17391 10.3768 9.49655 11.022L9.97949 11.9899L3.42848 19.4655C3.11589 19.8304 2.94359 20.2945 2.94359 20.7749V23.6352L1.2278 25.351C1.13134 25.4436 1.05432 25.5546 1.00127 25.6773C0.948211 25.8001 0.920182 25.9322 0.918822 26.0659C0.917461 26.1996 0.942797 26.3323 0.993344 26.4561C1.04389 26.5799 1.11863 26.6924 1.21319 26.7869C1.30776 26.8815 1.42023 26.9562 1.54404 27.0068C1.66785 27.0573 1.8005 27.0827 1.93423 27.0813C2.06795 27.0799 2.20006 27.0519 2.32281 26.9989C2.44557 26.9458 2.5565 26.8688 2.64912 26.7723L4.3649 25.0565H7.2252C7.70465 25.0565 8.16975 24.8842 8.53462 24.5716L16.0103 18.0206L16.9781 18.5036C17.6234 18.8262 18.3922 18.778 18.9923 18.3779L21.0359 17.0155C21.0359 17.0155 21.0359 12.995 18.0205 9.97962C15.0051 6.96423 10.9846 6.96423 10.9846 6.96423ZM12.9949 14.0001C13.2521 14.0001 13.5095 14.0981 13.7055 14.2946C14.0985 14.6866 14.0985 15.3239 13.7055 15.7159L12.7004 16.721C12.3074 17.114 11.6711 17.114 11.2791 16.721C10.8861 16.328 10.8861 15.6917 11.2791 15.2997L12.2842 14.2946C12.4807 14.0981 12.7377 14.0001 12.9949 14.0001Z" fill="#FF9C41"/>
</g>
<defs>
<clipPath id="clip0_851_31">
<rect width="28" height="28" fill="white"/>
</clipPath>
</defs>
</svg>
