<svg width="28" height="28" viewBox="0 0 28 28" fill="none" xmlns="http://www.w3.org/2000/svg">
<g clip-path="url(#clip0_851_29)">
<path d="M4.49697 0.933206C4.33956 0.931322 4.18328 0.955929 4.03721 1.0056C3.89114 1.05526 3.75819 1.129 3.64609 1.22252C3.53399 1.31604 3.44498 1.42748 3.38422 1.55037C3.32346 1.67325 3.29217 1.80513 3.29217 1.93833C3.29217 2.07154 3.32346 2.20342 3.38422 2.3263C3.44498 2.44918 3.53399 2.56062 3.64609 2.65415C3.75819 2.74767 3.89114 2.8214 4.03721 2.87107C4.18328 2.92074 4.33956 2.94535 4.49697 2.94346H23.503C23.6604 2.94535 23.8167 2.92074 23.9628 2.87107C24.1089 2.8214 24.2418 2.74767 24.3539 2.65415C24.466 2.56062 24.555 2.44918 24.6158 2.3263C24.6765 2.20342 24.7078 2.07154 24.7078 1.93833C24.7078 1.80513 24.6765 1.67325 24.6158 1.55037C24.555 1.42748 24.466 1.31604 24.3539 1.22252C24.2418 1.129 24.1089 1.05526 23.9628 1.0056C23.8167 0.955929 23.6604 0.931322 23.503 0.933206H4.49697ZM3.30909 4.95372C3.15168 4.95184 2.9954 4.97644 2.84933 5.02611C2.70326 5.07578 2.57031 5.14951 2.45821 5.24303C2.34611 5.33656 2.2571 5.448 2.19634 5.57088C2.13558 5.69377 2.10429 5.82564 2.10429 5.95885C2.10429 6.09205 2.13558 6.22393 2.19634 6.34681C2.2571 6.4697 2.34611 6.58114 2.45821 6.67466C2.57031 6.76818 2.70326 6.84192 2.84933 6.89158C2.9954 6.94125 3.15168 6.96586 3.30909 6.96397H24.6909C24.8483 6.96586 25.0046 6.94125 25.1507 6.89158C25.2967 6.84192 25.4297 6.76818 25.5418 6.67466C25.6539 6.58114 25.7429 6.4697 25.8037 6.34681C25.8644 6.22393 25.8957 6.09205 25.8957 5.95885C25.8957 5.82564 25.8644 5.69377 25.8037 5.57088C25.7429 5.448 25.6539 5.33656 25.5418 5.24303C25.4297 5.14951 25.2967 5.07578 25.1507 5.02611C25.0046 4.97644 24.8483 4.95184 24.6909 4.95372H3.30909ZM3.30909 8.97423C1.99649 8.97423 0.933334 9.87382 0.933334 10.9845V25.0563C0.933334 26.1669 1.99649 27.0665 3.30909 27.0665H24.6909C26.0035 27.0665 27.0667 26.1669 27.0667 25.0563V10.9845C27.0667 9.87382 26.0035 8.97423 24.6909 8.97423H3.30909ZM18.3269 11.9955C18.5467 11.9583 18.7515 12.1 18.7515 12.29V14.7733C18.7515 14.9221 18.6268 15.0505 18.4545 15.0796L14 15.908V21.2144C14 22.707 13.3971 24.0512 11.3064 24.0512C9.60535 24.0512 8.65455 23.2561 8.65455 22.0409C8.65455 19.1079 12.8121 20.2789 12.8121 19.0255V12.9947L18.3269 11.9955Z" fill="#FF9C41"/>
</g>
<defs>
<clipPath id="clip0_851_29">
<rect width="28" height="28" fill="white"/>
</clipPath>
</defs>
</svg>
