<svg width="28" height="28" viewBox="0 0 28 28" fill="none" xmlns="http://www.w3.org/2000/svg">
<path d="M11.8222 1.01123V3.18901C11.2212 3.18901 10.7333 3.67683 10.7333 4.2779V11.9001C10.7333 12.5012 10.2455 12.989 9.64445 12.989C9.04338 12.989 8.55556 12.5012 8.55556 11.9001V8.63345L7.46667 7.54456V6.45567H6.37778V7.54456H5.28889V6.45567H4.2V7.54456L3.11111 8.63345V12.989H2.02222C1.42116 12.989 0.933334 13.4768 0.933334 14.0779V27.1446H7.78142C7.35785 26.4096 7.38907 25.4621 7.93242 24.7435C9.3948 22.8107 11.6055 21.7001 14 21.7001C16.3945 21.7001 18.6052 22.8107 20.0676 24.7435C20.6109 25.4621 20.6422 26.4096 20.2186 27.1446H27.0667V19.5223C27.0667 18.9213 26.5865 18.4335 25.9778 18.4335C25.3691 18.4335 24.8889 17.9456 24.8889 17.3446V12.989L23.8 10.8112L22.7111 12.989V17.3446C22.7111 17.9456 22.2233 18.4335 21.6222 18.4335C21.0212 18.4335 20.5333 17.9456 20.5333 17.3446V11.9001C20.5333 11.2991 20.0455 10.8112 19.4444 10.8112H17.2667V4.2779C17.2667 3.67683 16.7788 3.18901 16.1778 3.18901V1.01123H15.0889V3.18901H12.9111V1.01123H11.8222ZM14 26.0557C13.0842 26.0557 12.2409 26.4596 11.6181 27.1446H16.3798C15.7581 26.4596 14.9158 26.0557 14 26.0557Z" fill="#FF9C41"/>
</svg>
